{
	"asset":{
		"copyright":"Copyright \u00a9 2025 Mohamad Naseriyan (aka \"Mr.Naseriyan\"). Licensed for use in personal and commercial projects. Redistribution or resale prohibited.",
		"generator":"Khronos glTF Blender I/O v4.5.48",
		"version":"2.0"
	},
	"extensionsUsed":[
		"KHR_materials_specular"
	],
	"scene":0,
	"scenes":[
		{
			"name":"Scene",
			"nodes":[
				2,
				5,
				8
			]
		}
	],
	"nodes":[
		{
			"mesh":0,
			"name":"flame-volume",
			"rotation":[
				0,
				0.601676344871521,
				0,
				0.798740029335022
			],
			"scale":[
				0.1630145013332367,
				0.1630145013332367,
				0.1630145013332367
			],
			"translation":[
				-0.00038586556911468506,
				0.04747283458709717,
				0.007397174835205078
			]
		},
		{
			"children":[
				0
			],
			"mesh":1,
			"name":"wick",
			"scale":[
				0.7714741826057434,
				1.1596704721450806,
				0.7714741826057434
			],
			"translation":[
				-0.002773800864815712,
				0.12726764380931854,
				-0.001811981201171875
			]
		},
		{
			"children":[
				1
			],
			"mesh":2,
			"name":"candle",
			"scale":[
				1.2962199449539185,
				0.862313985824585,
				1.2962199449539185
			],
			"translation":[
				-0.038793206214904785,
				-0.025829315185546875,
				-2.3137896060943604
			]
		},
		{
			"mesh":3,
			"name":"flame-volume.001",
			"rotation":[
				0,
				0.601676344871521,
				0,
				0.798740029335022
			],
			"scale":[
				0.19124974310398102,
				0.19124972820281982,
				0.19124974310398102
			],
			"translation":[
				-0.00038586370646953583,
				0.04747283458709717,
				0.007397174835205078
			]
		},
		{
			"children":[
				3
			],
			"mesh":4,
			"name":"wick.001",
			"translation":[
				0.00034417957067489624,
				0.14046509563922882,
				0.01818215847015381
			]
		},
		{
			"children":[
				4
			],
			"mesh":5,
			"name":"candle.001",
			"translation":[
				-0.03066617250442505,
				-0.06619977951049805,
				-1.9773138761520386
			]
		},
		{
			"mesh":6,
			"name":"flame-volume.002",
			"rotation":[
				0,
				0.601676344871521,
				0,
				0.798740029335022
			],
			"scale":[
				0.1630144864320755,
				0.1630145013332367,
				0.1630144864320755
			],
			"translation":[
				-0.00038601458072662354,
				0.04747283086180687,
				0.007397409528493881
			]
		},
		{
			"children":[
				6
			],
			"mesh":7,
			"name":"wick.002",
			"rotation":[
				0,
				0.9008902907371521,
				0,
				0.4340469241142273
			],
			"scale":[
				0.6436035633087158,
				0.6436035633087158,
				0.6436035633087158
			],
			"translation":[
				-0.0012807510793209076,
				0.0342656746506691,
				-0.0020225048065185547
			]
		},
		{
			"children":[
				7
			],
			"mesh":8,
			"name":"candle.002",
			"translation":[
				-0.04940499737858772,
				-0.04331577569246292,
				-2.6079065799713135
			]
		}
	],
	"materials":[
		{
			"alphaMode":"BLEND",
			"doubleSided":true,
			"name":"flame",
			"pbrMetallicRoughness":{
				"baseColorFactor":[
					0.8021954298019409,
					0.586665689945221,
					0.05992045998573303,
					0.30000001192092896
				],
				"metallicFactor":0
			}
		},
		{
			"doubleSided":true,
			"extensions":{
				"KHR_materials_specular":{
					"specularFactor":0
				}
			},
			"name":"wick",
			"pbrMetallicRoughness":{
				"baseColorFactor":[
					1,
					1,
					0.5,
					1
				],
				"metallicFactor":0
			}
		},
		{
			"doubleSided":true,
			"name":"candle",
			"pbrMetallicRoughness":{
				"baseColorTexture":{
					"index":0
				},
				"metallicFactor":0
			}
		}
	],
	"meshes":[
		{
			"name":"Cone",
			"primitives":[
				{
					"attributes":{
						"POSITION":0,
						"NORMAL":1,
						"TEXCOORD_0":2
					},
					"indices":3,
					"material":0
				}
			]
		},
		{
			"name":"B\u00e9zierCurve.001",
			"primitives":[
				{
					"attributes":{
						"POSITION":4,
						"NORMAL":5,
						"TEXCOORD_0":6
					},
					"indices":7,
					"material":1
				}
			]
		},
		{
			"name":"Cylinder",
			"primitives":[
				{
					"attributes":{
						"POSITION":8,
						"NORMAL":9,
						"TEXCOORD_0":10
					},
					"indices":11,
					"material":2
				}
			]
		},
		{
			"name":"Cone.003",
			"primitives":[
				{
					"attributes":{
						"POSITION":12,
						"NORMAL":13,
						"TEXCOORD_0":14
					},
					"indices":3,
					"material":0
				}
			]
		},
		{
			"name":"B\u00e9zierCurve.004",
			"primitives":[
				{
					"attributes":{
						"POSITION":15,
						"NORMAL":16,
						"TEXCOORD_0":17
					},
					"indices":18,
					"material":1
				}
			]
		},
		{
			"name":"Cylinder.003",
			"primitives":[
				{
					"attributes":{
						"POSITION":19,
						"NORMAL":20,
						"TEXCOORD_0":21
					},
					"indices":22,
					"material":2
				}
			]
		},
		{
			"name":"Cone.002",
			"primitives":[
				{
					"attributes":{
						"POSITION":23,
						"NORMAL":24,
						"TEXCOORD_0":25
					},
					"indices":3,
					"material":0
				}
			]
		},
		{
			"name":"B\u00e9zierCurve.003",
			"primitives":[
				{
					"attributes":{
						"POSITION":26,
						"NORMAL":27,
						"TEXCOORD_0":28
					},
					"indices":7,
					"material":1
				}
			]
		},
		{
			"name":"Cylinder.001",
			"primitives":[
				{
					"attributes":{
						"POSITION":29,
						"NORMAL":30,
						"TEXCOORD_0":31
					},
					"indices":32,
					"material":2
				}
			]
		}
	],
	"textures":[
		{
			"sampler":0,
			"source":0
		}
	],
	"images":[
		{
			"mimeType":"image/png",
			"name":"candle_bc",
			"uri":"textures/candle_bc.png"
		}
	],
	"accessors":[
		{
			"bufferView":0,
			"componentType":5126,
			"count":26,
			"max":[
				0.08987963199615479,
				0.15000002086162567,
				0.10378405451774597
			],
			"min":[
				-0.09173661470413208,
				-0.2367214560508728,
				-0.10378405451774597
			],
			"type":"VEC3"
		},
		{
			"bufferView":1,
			"componentType":5126,
			"count":26,
			"type":"VEC3"
		},
		{
			"bufferView":2,
			"componentType":5126,
			"count":26,
			"type":"VEC2"
		},
		{
			"bufferView":3,
			"componentType":5123,
			"count":108,
			"type":"SCALAR"
		},
		{
			"bufferView":4,
			"componentType":5126,
			"count":162,
			"max":[
				0.002757444977760315,
				0.015372276306152344,
				0.007956042885780334
			],
			"min":[
				-0.0021844429429620504,
				-0.019859805703163147,
				-0.009028837084770203
			],
			"type":"VEC3"
		},
		{
			"bufferView":5,
			"componentType":5126,
			"count":162,
			"type":"VEC3"
		},
		{
			"bufferView":6,
			"componentType":5126,
			"count":162,
			"type":"VEC2"
		},
		{
			"bufferView":7,
			"componentType":5123,
			"count":444,
			"type":"SCALAR"
		},
		{
			"bufferView":8,
			"componentType":5126,
			"count":98,
			"max":[
				0.04505176097154617,
				0.13254360854625702,
				0.048516444861888885
			],
			"min":[
				-0.04097720980644226,
				-0.12476562708616257,
				-0.048803504556417465
			],
			"type":"VEC3"
		},
		{
			"bufferView":9,
			"componentType":5126,
			"count":98,
			"type":"VEC3"
		},
		{
			"bufferView":10,
			"componentType":5126,
			"count":98,
			"type":"VEC2"
		},
		{
			"bufferView":11,
			"componentType":5123,
			"count":504,
			"type":"SCALAR"
		},
		{
			"bufferView":12,
			"componentType":5126,
			"count":26,
			"max":[
				0.08987963199615479,
				0.15000002086162567,
				0.10378405451774597
			],
			"min":[
				-0.09173661470413208,
				-0.2367214560508728,
				-0.10378405451774597
			],
			"type":"VEC3"
		},
		{
			"bufferView":13,
			"componentType":5126,
			"count":26,
			"type":"VEC3"
		},
		{
			"bufferView":14,
			"componentType":5126,
			"count":26,
			"type":"VEC2"
		},
		{
			"bufferView":15,
			"componentType":5126,
			"count":150,
			"max":[
				0.0024710125289857388,
				0.015372276306152344,
				0.007956042885780334
			],
			"min":[
				-0.0021844429429620504,
				-0.015722572803497314,
				-0.009001895785331726
			],
			"type":"VEC3"
		},
		{
			"bufferView":16,
			"componentType":5126,
			"count":150,
			"type":"VEC3"
		},
		{
			"bufferView":17,
			"componentType":5126,
			"count":150,
			"type":"VEC2"
		},
		{
			"bufferView":18,
			"componentType":5123,
			"count":408,
			"type":"SCALAR"
		},
		{
			"bufferView":19,
			"componentType":5126,
			"count":65,
			"max":[
				0.08958403021097183,
				0.13383612036705017,
				0.07679811865091324
			],
			"min":[
				-0.08097925782203674,
				-0.07393931597471237,
				-0.0803070142865181
			],
			"type":"VEC3"
		},
		{
			"bufferView":20,
			"componentType":5126,
			"count":65,
			"type":"VEC3"
		},
		{
			"bufferView":21,
			"componentType":5126,
			"count":65,
			"type":"VEC2"
		},
		{
			"bufferView":22,
			"componentType":5123,
			"count":306,
			"type":"SCALAR"
		},
		{
			"bufferView":23,
			"componentType":5126,
			"count":26,
			"max":[
				0.08987963199615479,
				0.15000002086162567,
				0.10378405451774597
			],
			"min":[
				-0.09173661470413208,
				-0.2367214560508728,
				-0.10378405451774597
			],
			"type":"VEC3"
		},
		{
			"bufferView":24,
			"componentType":5126,
			"count":26,
			"type":"VEC3"
		},
		{
			"bufferView":25,
			"componentType":5126,
			"count":26,
			"type":"VEC2"
		},
		{
			"bufferView":26,
			"componentType":5126,
			"count":162,
			"max":[
				0.002757444977760315,
				0.015372276306152344,
				0.007956042885780334
			],
			"min":[
				-0.0021844429429620504,
				-0.019859805703163147,
				-0.009028837084770203
			],
			"type":"VEC3"
		},
		{
			"bufferView":27,
			"componentType":5126,
			"count":162,
			"type":"VEC3"
		},
		{
			"bufferView":28,
			"componentType":5126,
			"count":162,
			"type":"VEC2"
		},
		{
			"bufferView":29,
			"componentType":5126,
			"count":56,
			"max":[
				0.05333087220788002,
				0.053557951003313065,
				0.049677249044179916
			],
			"min":[
				-0.05901727452874184,
				-0.05551031976938248,
				-0.052874933928251266
			],
			"type":"VEC3"
		},
		{
			"bufferView":30,
			"componentType":5126,
			"count":56,
			"type":"VEC3"
		},
		{
			"bufferView":31,
			"componentType":5126,
			"count":56,
			"type":"VEC2"
		},
		{
			"bufferView":32,
			"componentType":5123,
			"count":252,
			"type":"SCALAR"
		}
	],
	"bufferViews":[
		{
			"buffer":0,
			"byteLength":312,
			"byteOffset":0,
			"target":34962
		},
		{
			"buffer":0,
			"byteLength":312,
			"byteOffset":312,
			"target":34962
		},
		{
			"buffer":0,
			"byteLength":208,
			"byteOffset":624,
			"target":34962
		},
		{
			"buffer":0,
			"byteLength":216,
			"byteOffset":832,
			"target":34963
		},
		{
			"buffer":0,
			"byteLength":1944,
			"byteOffset":1048,
			"target":34962
		},
		{
			"buffer":0,
			"byteLength":1944,
			"byteOffset":2992,
			"target":34962
		},
		{
			"buffer":0,
			"byteLength":1296,
			"byteOffset":4936,
			"target":34962
		},
		{
			"buffer":0,
			"byteLength":888,
			"byteOffset":6232,
			"target":34963
		},
		{
			"buffer":0,
			"byteLength":1176,
			"byteOffset":7120,
			"target":34962
		},
		{
			"buffer":0,
			"byteLength":1176,
			"byteOffset":8296,
			"target":34962
		},
		{
			"buffer":0,
			"byteLength":784,
			"byteOffset":9472,
			"target":34962
		},
		{
			"buffer":0,
			"byteLength":1008,
			"byteOffset":10256,
			"target":34963
		},
		{
			"buffer":0,
			"byteLength":312,
			"byteOffset":11264,
			"target":34962
		},
		{
			"buffer":0,
			"byteLength":312,
			"byteOffset":11576,
			"target":34962
		},
		{
			"buffer":0,
			"byteLength":208,
			"byteOffset":11888,
			"target":34962
		},
		{
			"buffer":0,
			"byteLength":1800,
			"byteOffset":12096,
			"target":34962
		},
		{
			"buffer":0,
			"byteLength":1800,
			"byteOffset":13896,
			"target":34962
		},
		{
			"buffer":0,
			"byteLength":1200,
			"byteOffset":15696,
			"target":34962
		},
		{
			"buffer":0,
			"byteLength":816,
			"byteOffset":16896,
			"target":34963
		},
		{
			"buffer":0,
			"byteLength":780,
			"byteOffset":17712,
			"target":34962
		},
		{
			"buffer":0,
			"byteLength":780,
			"byteOffset":18492,
			"target":34962
		},
		{
			"buffer":0,
			"byteLength":520,
			"byteOffset":19272,
			"target":34962
		},
		{
			"buffer":0,
			"byteLength":612,
			"byteOffset":19792,
			"target":34963
		},
		{
			"buffer":0,
			"byteLength":312,
			"byteOffset":20404,
			"target":34962
		},
		{
			"buffer":0,
			"byteLength":312,
			"byteOffset":20716,
			"target":34962
		},
		{
			"buffer":0,
			"byteLength":208,
			"byteOffset":21028,
			"target":34962
		},
		{
			"buffer":0,
			"byteLength":1944,
			"byteOffset":21236,
			"target":34962
		},
		{
			"buffer":0,
			"byteLength":1944,
			"byteOffset":23180,
			"target":34962
		},
		{
			"buffer":0,
			"byteLength":1296,
			"byteOffset":25124,
			"target":34962
		},
		{
			"buffer":0,
			"byteLength":672,
			"byteOffset":26420,
			"target":34962
		},
		{
			"buffer":0,
			"byteLength":672,
			"byteOffset":27092,
			"target":34962
		},
		{
			"buffer":0,
			"byteLength":448,
			"byteOffset":27764,
			"target":34962
		},
		{
			"buffer":0,
			"byteLength":504,
			"byteOffset":28212,
			"target":34963
		}
	],
	"samplers":[
		{
			"magFilter":9729,
			"minFilter":9987
		}
	],
	"buffers":[
		{
			"byteLength":28716,
			"uri":"candle.bin"
		}
	]
}
